# xmcd
#
# Track frame offsets:
#	150
#	24953
#	43830
#	50076
#	72650
#	84780
#	91050
#	98202
#	112725
#	156491
#	164720
#	182314
#	187100
#	196768
#	201536
#	207168
#	223179
#	234761
#	245561
#	259460
#
# Disc length: 4162 seconds
# Revision: 0
# Processed by: cddbd v1.5.2PL0 Copyright (c) Steve Scherf et al.
# Submitted via: dBpowerAMP V12.0
#
DISCID=1f104014
DTITLE=Das Blut der Lilie 6 - Das Blut Der Lilie CD6
DYEAR=1900
DGENRE=Unbekanntes Genre
TTITLE0=01
TTITLE1=02
TTITLE2=03
TTITLE3=04
TTITLE4=05
TTITLE5=06
TTITLE6=07
TTITLE7=08
TTITLE8=09
TTITLE9=10
TTITLE10=11
TTITLE11=12
TTITLE12=13
TTITLE13=14
TTITLE14=15
TTITLE15=16
TTITLE16=17
TTITLE17=18
TTITLE18=19
TTITLE19=20
EXTD=
EXTT0=
EXTT1=
EXTT2=
EXTT3=
EXTT4=
EXTT5=
EXTT6=
EXTT7=
EXTT8=
EXTT9=
EXTT10=
EXTT11=
EXTT12=
EXTT13=
EXTT14=
EXTT15=
EXTT16=
EXTT17=
EXTT18=
EXTT19=
PLAYORDER=
